HIERARCHY
ROOT hip
{
	OFFSET 0.000000 0.000000 0.000000 
	CHANNELS 6 Xposition Yposition Zposition Xrotation Zrotation Yrotation
	JOINT abdomen
	{
		OFFSET 0.000000 3.402643 0.000000 
		CHANNELS 3 Xrotation Zrotation Yrotation
		JOINT chest
		{
			OFFSET 0.000000 8.438565 -0.680529 
			CHANNELS 3 Xrotation Zrotation Yrotation
			JOINT neck
			{
				OFFSET 0.000000 10.207942 -0.272212 
				CHANNELS 3 Xrotation Zrotation Yrotation
				JOINT head
				{
					OFFSET 0.000000 3.130431 0.000000 
					CHANNELS 3 Xrotation Zrotation Yrotation
					End Site
					{
						OFFSET 0.000000 3.130435 0.000000 
					}
				}
			}
			JOINT lCollar
			{
				OFFSET 3.470700 6.669187 -0.816635 
				CHANNELS 3 Yrotation Zrotation Xrotation
				JOINT lShldr
				{
					OFFSET 3.198488 0.000000 0.000000 
					CHANNELS 3 Zrotation Yrotation Xrotation
					JOINT lForeArm
					{
						OFFSET 10.139888 0.000000 0.000000 
						CHANNELS 3 Yrotation Zrotation Xrotation
						JOINT lHand
						{
							OFFSET 8.370511 0.000000 0.000000 
							CHANNELS 3 Zrotation Yrotation Xrotation
							End Site
							{
								OFFSET 4.083176 0.000000 0.000000 
							}
						}
					}
				}
			}
			JOINT rCollar
			{
				OFFSET -3.470700 6.669187 -0.816635 
				CHANNELS 3 Yrotation Zrotation Xrotation
				JOINT rShldr
				{
					OFFSET -3.198488 0.000000 0.000000 
					CHANNELS 3 Zrotation Yrotation Xrotation
					JOINT rForeArm
					{
						OFFSET -10.139888 0.000000 0.000000 
						CHANNELS 3 Yrotation Zrotation Xrotation
						JOINT rHand
						{
							OFFSET -8.370511 0.000000 0.000000 
							CHANNELS 3 Zrotation Yrotation Xrotation
							End Site
							{
								OFFSET -4.083176 0.000000 0.000000 
							}
						}
					}
				}
			}
		}
	}
	JOINT lThigh
	{
		OFFSET 5.308129 -1.633274 1.361059 
		CHANNELS 3 Xrotation Zrotation Yrotation
		JOINT lShin
		{
			OFFSET -2.041588 -20.007561 0.000000 
			CHANNELS 3 Xrotation Zrotation Yrotation
			JOINT lFoot
			{
				OFFSET 0.000000 -19.190928 -1.224953 
				CHANNELS 3 Xrotation Yrotation Zrotation
				End Site
				{
					OFFSET 0.000000 -2.449906 4.627600 
				}
			}
		}
	}
	JOINT rThigh
	{
		OFFSET -5.308129 -1.633274 1.361059 
		CHANNELS 3 Xrotation Zrotation Yrotation
		JOINT rShin
		{
			OFFSET 2.041588 -20.007561 0.000000 
			CHANNELS 3 Xrotation Zrotation Yrotation
			JOINT rFoot
			{
				OFFSET 0.000000 -19.190928 -1.224953 
				CHANNELS 3 Xrotation Yrotation Zrotation
				End Site
				{
					OFFSET 0.000000 -2.449906 4.627600 
				}
			}
		}
	}
}
MOTION
Frames: 11
Frame Time: 0.033333
-10.677926 42.619453 39.470875 2.978516 -8.964844 164.871521 10.449219 8.066406 11.835938 -22.841797 13.095703 11.689452 4.921875 -23.486328 -0.732422 29.316404 -3.935547 -8.505860 21.132814 30.000000 1.645507 14.189453 -23.398439 -69.437469 -62.226563 -3.515625 -60.497452 -10.107418 -113.867188 10.694195 13.789063 -13.554688 0.519867 77.529297 17.109375 -10.710017 52.880863 3.789063 -64.522125 7.871094 -18.671877 -3.225783 -39.665333 -7.382117 -4.276843 36.092308 -1.415886 -2.923433 -2.969317 -10.477300 -5.782354 -4.756477 -19.766190 -7.773689 70.363640 -1.240162 3.566796 4.770926 -45.667141 6.731741 
-10.501411 42.851208 39.666012 1.572266 -8.964844 164.148865 10.195313 7.343750 12.333983 -23.017576 13.095703 12.219010 3.330078 -23.466797 -0.492170 28.789063 -4.277344 -8.340572 22.373047 29.521484 1.416016 14.824219 -22.949219 -70.703125 -64.218750 -3.583984 -59.940796 -11.132807 -113.779297 11.612158 14.003906 -12.998048 0.595703 75.566406 18.847656 -10.654297 50.878906 3.671875 -64.628906 8.984375 -19.238281 -3.772749 -40.385731 -6.512713 -4.945622 35.067707 -1.064455 -2.753915 -2.470326 -9.956067 -5.923086 -3.876970 -19.195498 -8.382873 67.571159 -1.067820 3.395449 1.594078 -44.913841 4.309467 
-10.356504 42.939289 40.052116 -0.175781 -8.964844 163.818359 10.136718 6.835937 12.695312 -23.369141 13.095703 12.746354 1.220703 -23.251955 -0.169871 28.261719 -4.277344 -7.822995 23.095701 28.359373 1.484374 15.000000 -21.962893 -72.171623 -66.064453 -3.564453 -59.911503 -10.654298 -113.916016 11.074219 14.033203 -12.451172 0.627105 73.310547 21.181641 -9.873047 48.603516 3.574219 -63.584595 10.273438 -18.564453 -4.007013 -42.129913 -5.632887 -5.315618 34.525562 -1.249939 -2.780009 -1.360255 -9.652430 -5.654119 -4.052362 -19.073631 -9.441332 65.802475 -1.064237 3.133872 -1.282295 -42.019066 2.533455 
-10.231068 42.892857 40.562546 -1.767578 -8.964844 163.816849 10.449220 6.396485 12.911243 -23.369141 12.919922 13.097887 -1.210938 -22.705080 -0.117187 27.910156 -4.453125 -7.480468 23.896484 27.294924 1.347656 15.078126 -21.123051 -74.183212 -67.636719 -3.691406 -60.097660 -8.769534 -114.111328 9.228515 14.062501 -11.552734 0.617190 70.576172 23.447266 -9.439472 46.835938 3.750000 -63.437500 11.982422 -17.998047 -4.426846 -44.052429 -4.568733 -5.915331 33.998440 -1.243225 -2.750246 0.193560 -9.971777 -5.417590 -4.755613 -19.563934 -10.074423 65.277145 -0.888574 3.221051 -4.843287 -37.286922 0.776458 
-10.119230 42.642109 41.252804 -3.691406 -8.974609 164.150391 10.585938 5.947266 13.126013 -23.544920 13.095704 13.273697 -3.476562 -22.353516 -0.169730 26.855469 -4.443359 -7.158960 23.847656 26.064455 1.245709 14.453126 -20.380861 -75.931137 -69.033203 -3.466797 -59.667377 -7.763666 -114.218750 8.467656 14.082031 -10.488282 0.519356 67.900391 25.195313 -9.087638 44.775391 3.662110 -63.310547 13.808595 -16.855469 -4.778223 -46.971233 -3.506203 -6.085128 34.350677 -1.232177 -2.755909 1.726265 -11.042366 -5.119018 -6.346819 -20.529810 -10.221996 66.323502 -0.957013 3.405322 -10.110280 -31.535810 -1.166122 
-10.001024 42.146626 42.075840 -5.458984 -8.798827 164.705536 11.083984 5.556641 13.173618 -23.896484 13.095704 13.263931 -5.390625 -21.835939 -0.228242 25.800781 -4.609375 -7.012503 23.505859 25.371094 1.201172 13.105468 -19.960938 -77.871094 -70.498047 -3.544922 -58.710331 -6.816401 -114.160156 7.539918 14.433594 -9.638673 0.361328 65.068359 26.474611 -9.296875 42.753906 3.662110 -62.998672 15.507813 -16.406252 -5.178540 -50.843609 -2.802197 -5.547436 35.751152 -1.406080 -2.892042 3.326088 -12.109818 -4.775787 -7.187176 -20.622105 -10.184080 67.025459 -1.064366 3.356422 -15.259544 -27.517288 -3.019483 
-9.883553 41.415215 43.008881 -7.031250 -8.613281 165.048828 11.757813 5.175782 13.212891 -23.896484 12.919923 13.439683 -7.451172 -20.957029 -0.332031 24.921875 -4.599609 -6.865234 23.476564 24.589846 1.216640 12.158202 -19.853514 -79.687500 -71.572266 -3.574219 -59.160156 -4.394525 -114.550781 5.313383 14.306641 -8.359375 0.361328 61.679688 28.027346 -8.882129 41.279297 3.652344 -63.505856 17.587891 -15.839844 -5.686260 -55.358055 -1.582193 -4.355778 37.849800 -0.929794 -3.203776 4.617098 -13.719401 -4.404727 -7.196395 -20.999746 -10.007136 67.551758 -1.054402 3.403281 -17.618353 -28.525023 -4.495646 
-9.782495 40.473721 44.037094 -8.437499 -8.623047 165.203613 12.246094 4.726397 13.428956 -23.896484 12.392579 13.615376 -9.169923 -20.263674 -0.419922 24.042967 -4.775391 -6.708985 22.773439 24.824219 1.216603 10.292969 -18.740234 -79.863281 -72.783195 -3.515625 -61.307995 -0.322271 -115.312500 1.572266 14.150391 -7.460639 0.284407 58.720699 28.896484 -7.695312 41.367191 3.769531 -63.711582 19.433596 -15.322266 -5.998675 -60.188309 -0.370758 -3.060263 40.860050 -0.888744 -2.994170 5.031829 -14.841567 -4.159637 -6.689163 -21.403421 -9.677759 68.084984 -0.995433 3.308970 -17.686356 -32.592392 -5.731649 
-9.702629 39.392223 45.202744 -9.667969 -8.798827 164.501953 12.910156 4.560547 13.926558 -23.720703 11.865233 13.791071 -10.390625 -19.697266 -0.136719 22.998047 -5.117188 -6.562500 21.953127 24.667971 1.284986 8.564453 -17.919920 -79.179695 -73.300774 -3.505859 -62.733780 2.792974 -115.654297 -1.112319 15.029297 -7.285156 0.351563 56.015625 28.417969 -5.820313 43.730469 3.681641 -63.203751 20.224609 -14.707033 -5.920448 -64.384109 1.386526 -1.382983 43.319099 -0.451813 -3.102714 4.924068 -15.574378 -4.441754 -6.513160 -22.073168 -9.044929 68.252586 -1.239892 3.311023 -17.925329 -35.793793 -7.041593 
-9.672618 38.295902 46.531433 -10.371094 -9.326173 163.094131 13.925781 4.443359 14.258569 -23.369141 11.689453 14.142603 -11.103515 -19.628906 0.377579 21.943361 -5.644532 -6.065413 20.791016 23.837891 1.191406 6.669921 -17.236326 -77.509766 -73.779297 -3.613281 -62.636101 3.183606 -115.478516 -1.649442 15.185548 -7.500000 0.255181 54.443359 27.441406 -1.103515 47.851563 3.632813 -61.973278 21.621094 -13.339845 -5.712890 -68.017311 3.661222 -0.211548 44.543919 -0.592132 -3.050933 5.568918 -16.251509 -3.996211 -6.503407 -22.924673 -7.799554 68.085114 -1.064544 3.244869 -19.728743 -36.651962 -8.239147 
-9.701159 37.361637 48.056858 -10.556642 -10.029298 161.191406 15.478515 4.169922 14.531250 -22.666016 11.337892 14.152311 -11.494141 -19.873049 1.295508 20.888672 -6.162110 -5.391673 19.521484 22.460939 1.168144 3.603516 -15.996095 -74.355469 -75.117188 -3.623047 -61.494141 1.894531 -114.941399 -0.341797 15.371093 -7.841796 0.371094 54.033203 24.111328 5.166015 55.830078 3.691406 -61.817036 21.796877 -10.468750 -4.757634 -70.818878 5.956810 0.042379 44.371216 -0.588818 -3.225305 7.664605 -16.503811 -3.400565 -7.919101 -24.232267 -6.721232 68.779167 -1.240383 3.341019 -24.232977 -36.029926 -10.744218 
